<?xml version="1.0" encoding="UTF-8" standalone="no"?>
<!DOCTYPE svg PUBLIC "-//W3C//DTD SVG 1.1//EN"
 "http://www.w3.org/Graphics/SVG/1.1/DTD/svg11.dtd">
<!-- Generated by graphviz version 2.50.0 (0)
 -->
<!-- Pages: 1 -->
<svg width="1148pt" height="156pt"
 viewBox="0.00 0.00 1148.00 156.00" xmlns="http://www.w3.org/2000/svg" xmlns:xlink="http://www.w3.org/1999/xlink">
<g id="graph0" class="graph" transform="scale(1 1) rotate(0) translate(4 152)">
<polygon fill="white" stroke="transparent" points="-4,4 -4,-152 1144,-152 1144,4 -4,4"/>
<!-- 2723651077168 -->
<g id="node1" class="node">
<title>2723651077168</title>
<polygon fill="none" stroke="black" points="948,-27.5 948,-63.5 1140,-63.5 1140,-27.5 948,-27.5"/>
<text text-anchor="middle" x="960.5" y="-41.8" font-family="Times New Roman,serif" font-size="14.00">L</text>
<polyline fill="none" stroke="black" points="973,-27.5 973,-63.5 "/>
<text text-anchor="middle" x="1015.5" y="-41.8" font-family="Times New Roman,serif" font-size="14.00">data &#45;8.0000</text>
<polyline fill="none" stroke="black" points="1058,-27.5 1058,-63.5 "/>
<text text-anchor="middle" x="1099" y="-41.8" font-family="Times New Roman,serif" font-size="14.00">grad 1.0000</text>
</g>
<!-- 2723651077168* -->
<g id="node2" class="node">
<title>2723651077168*</title>
<ellipse fill="none" stroke="black" cx="885" cy="-45.5" rx="27" ry="18"/>
<text text-anchor="middle" x="885" y="-41.8" font-family="Times New Roman,serif" font-size="14.00">*</text>
</g>
<!-- 2723651077168*&#45;&gt;2723651077168 -->
<g id="edge1" class="edge">
<title>2723651077168*&#45;&gt;2723651077168</title>
<path fill="none" stroke="black" d="M912.28,-45.5C919.78,-45.5 928.44,-45.5 937.67,-45.5"/>
<polygon fill="black" stroke="black" points="937.87,-49 947.87,-45.5 937.87,-42 937.87,-49"/>
</g>
<!-- 2723651078560 -->
<g id="node3" class="node">
<title>2723651078560</title>
<polygon fill="none" stroke="black" points="635.5,-55.5 635.5,-91.5 820.5,-91.5 820.5,-55.5 635.5,-55.5"/>
<text text-anchor="middle" x="647" y="-69.8" font-family="Times New Roman,serif" font-size="14.00">d</text>
<polyline fill="none" stroke="black" points="658.5,-55.5 658.5,-91.5 "/>
<text text-anchor="middle" x="698.5" y="-69.8" font-family="Times New Roman,serif" font-size="14.00">data 4.0000</text>
<polyline fill="none" stroke="black" points="738.5,-55.5 738.5,-91.5 "/>
<text text-anchor="middle" x="779.5" y="-69.8" font-family="Times New Roman,serif" font-size="14.00">grad 0.0000</text>
</g>
<!-- 2723651078560&#45;&gt;2723651077168* -->
<g id="edge7" class="edge">
<title>2723651078560&#45;&gt;2723651077168*</title>
<path fill="none" stroke="black" d="M820.51,-56.97C830.48,-55.17 840.13,-53.42 848.77,-51.86"/>
<polygon fill="black" stroke="black" points="849.55,-55.28 858.77,-50.06 848.3,-48.39 849.55,-55.28"/>
</g>
<!-- 2723651078560+ -->
<g id="node4" class="node">
<title>2723651078560+</title>
<ellipse fill="none" stroke="black" cx="571" cy="-73.5" rx="27" ry="18"/>
<text text-anchor="middle" x="571" y="-69.8" font-family="Times New Roman,serif" font-size="14.00">+</text>
</g>
<!-- 2723651078560+&#45;&gt;2723651078560 -->
<g id="edge2" class="edge">
<title>2723651078560+&#45;&gt;2723651078560</title>
<path fill="none" stroke="black" d="M598.29,-73.5C606.26,-73.5 615.54,-73.5 625.39,-73.5"/>
<polygon fill="black" stroke="black" points="625.41,-77 635.41,-73.5 625.41,-70 625.41,-77"/>
</g>
<!-- 2723651077840 -->
<g id="node5" class="node">
<title>2723651077840</title>
<polygon fill="none" stroke="black" points="634,-0.5 634,-36.5 822,-36.5 822,-0.5 634,-0.5"/>
<text text-anchor="middle" x="644.5" y="-14.8" font-family="Times New Roman,serif" font-size="14.00">f</text>
<polyline fill="none" stroke="black" points="655,-0.5 655,-36.5 "/>
<text text-anchor="middle" x="697.5" y="-14.8" font-family="Times New Roman,serif" font-size="14.00">data &#45;2.0000</text>
<polyline fill="none" stroke="black" points="740,-0.5 740,-36.5 "/>
<text text-anchor="middle" x="781" y="-14.8" font-family="Times New Roman,serif" font-size="14.00">grad 0.0000</text>
</g>
<!-- 2723651077840&#45;&gt;2723651077168* -->
<g id="edge9" class="edge">
<title>2723651077840&#45;&gt;2723651077168*</title>
<path fill="none" stroke="black" d="M822.29,-34.75C831.57,-36.37 840.52,-37.93 848.61,-39.33"/>
<polygon fill="black" stroke="black" points="848.22,-42.82 858.68,-41.09 849.42,-35.92 848.22,-42.82"/>
</g>
<!-- 2723651078944 -->
<g id="node6" class="node">
<title>2723651078944</title>
<polygon fill="none" stroke="black" points="0,-111.5 0,-147.5 190,-147.5 190,-111.5 0,-111.5"/>
<text text-anchor="middle" x="11.5" y="-125.8" font-family="Times New Roman,serif" font-size="14.00">b</text>
<polyline fill="none" stroke="black" points="23,-111.5 23,-147.5 "/>
<text text-anchor="middle" x="65.5" y="-125.8" font-family="Times New Roman,serif" font-size="14.00">data &#45;3.0000</text>
<polyline fill="none" stroke="black" points="108,-111.5 108,-147.5 "/>
<text text-anchor="middle" x="149" y="-125.8" font-family="Times New Roman,serif" font-size="14.00">grad 0.0000</text>
</g>
<!-- 2723651079520* -->
<g id="node8" class="node">
<title>2723651079520*</title>
<ellipse fill="none" stroke="black" cx="253" cy="-101.5" rx="27" ry="18"/>
<text text-anchor="middle" x="253" y="-97.8" font-family="Times New Roman,serif" font-size="14.00">*</text>
</g>
<!-- 2723651078944&#45;&gt;2723651079520* -->
<g id="edge8" class="edge">
<title>2723651078944&#45;&gt;2723651079520*</title>
<path fill="none" stroke="black" d="M190.34,-112.57C199.62,-110.9 208.58,-109.29 216.66,-107.84"/>
<polygon fill="black" stroke="black" points="217.49,-111.25 226.72,-106.04 216.26,-104.36 217.49,-111.25"/>
</g>
<!-- 2723651079520 -->
<g id="node7" class="node">
<title>2723651079520</title>
<polygon fill="none" stroke="black" points="317,-83.5 317,-119.5 507,-119.5 507,-83.5 317,-83.5"/>
<text text-anchor="middle" x="328.5" y="-97.8" font-family="Times New Roman,serif" font-size="14.00">e</text>
<polyline fill="none" stroke="black" points="340,-83.5 340,-119.5 "/>
<text text-anchor="middle" x="382.5" y="-97.8" font-family="Times New Roman,serif" font-size="14.00">data &#45;6.0000</text>
<polyline fill="none" stroke="black" points="425,-83.5 425,-119.5 "/>
<text text-anchor="middle" x="466" y="-97.8" font-family="Times New Roman,serif" font-size="14.00">grad 0.0000</text>
</g>
<!-- 2723651079520&#45;&gt;2723651078560+ -->
<g id="edge6" class="edge">
<title>2723651079520&#45;&gt;2723651078560+</title>
<path fill="none" stroke="black" d="M507.05,-84.73C516.89,-82.97 526.39,-81.28 534.9,-79.76"/>
<polygon fill="black" stroke="black" points="535.52,-83.2 544.75,-78 534.29,-76.31 535.52,-83.2"/>
</g>
<!-- 2723651079520*&#45;&gt;2723651079520 -->
<g id="edge3" class="edge">
<title>2723651079520*&#45;&gt;2723651079520</title>
<path fill="none" stroke="black" d="M280.28,-101.5C288.05,-101.5 297.08,-101.5 306.68,-101.5"/>
<polygon fill="black" stroke="black" points="306.88,-105 316.88,-101.5 306.88,-98 306.88,-105"/>
</g>
<!-- 2723651080048 -->
<g id="node9" class="node">
<title>2723651080048</title>
<polygon fill="none" stroke="black" points="2.5,-56.5 2.5,-92.5 187.5,-92.5 187.5,-56.5 2.5,-56.5"/>
<text text-anchor="middle" x="14" y="-70.8" font-family="Times New Roman,serif" font-size="14.00">a</text>
<polyline fill="none" stroke="black" points="25.5,-56.5 25.5,-92.5 "/>
<text text-anchor="middle" x="65.5" y="-70.8" font-family="Times New Roman,serif" font-size="14.00">data 2.0000</text>
<polyline fill="none" stroke="black" points="105.5,-56.5 105.5,-92.5 "/>
<text text-anchor="middle" x="146.5" y="-70.8" font-family="Times New Roman,serif" font-size="14.00">grad 0.0000</text>
</g>
<!-- 2723651080048&#45;&gt;2723651079520* -->
<g id="edge4" class="edge">
<title>2723651080048&#45;&gt;2723651079520*</title>
<path fill="none" stroke="black" d="M187.65,-90.36C197.94,-92.14 207.91,-93.87 216.81,-95.41"/>
<polygon fill="black" stroke="black" points="216.26,-98.87 226.71,-97.12 217.45,-91.97 216.26,-98.87"/>
</g>
<!-- 2723651080096 -->
<g id="node10" class="node">
<title>2723651080096</title>
<polygon fill="none" stroke="black" points="316,-28.5 316,-64.5 508,-64.5 508,-28.5 316,-28.5"/>
<text text-anchor="middle" x="327.5" y="-42.8" font-family="Times New Roman,serif" font-size="14.00">c</text>
<polyline fill="none" stroke="black" points="339,-28.5 339,-64.5 "/>
<text text-anchor="middle" x="382.5" y="-42.8" font-family="Times New Roman,serif" font-size="14.00">data 10.0000</text>
<polyline fill="none" stroke="black" points="426,-28.5 426,-64.5 "/>
<text text-anchor="middle" x="467" y="-42.8" font-family="Times New Roman,serif" font-size="14.00">grad 0.0000</text>
</g>
<!-- 2723651080096&#45;&gt;2723651078560+ -->
<g id="edge5" class="edge">
<title>2723651080096&#45;&gt;2723651078560+</title>
<path fill="none" stroke="black" d="M508.4,-62.91C517.69,-64.5 526.64,-66.04 534.71,-67.43"/>
<polygon fill="black" stroke="black" points="534.32,-70.91 544.76,-69.16 535.5,-64.02 534.32,-70.91"/>
</g>
</g>
</svg>
