<?xml version="1.0" encoding="UTF-8" standalone="no"?>
<!DOCTYPE svg PUBLIC "-//W3C//DTD SVG 1.1//EN"
 "http://www.w3.org/Graphics/SVG/1.1/DTD/svg11.dtd">
<!-- Generated by graphviz version 2.50.0 (0)
 -->
<!-- Pages: 1 -->
<svg width="1157pt" height="156pt"
 viewBox="0.00 0.00 1157.00 156.00" xmlns="http://www.w3.org/2000/svg" xmlns:xlink="http://www.w3.org/1999/xlink">
<g id="graph0" class="graph" transform="scale(1 1) rotate(0) translate(4 152)">
<polygon fill="white" stroke="transparent" points="-4,4 -4,-152 1153,-152 1153,4 -4,4"/>
<!-- 2723651077168 -->
<g id="node1" class="node">
<title>2723651077168</title>
<polygon fill="none" stroke="black" points="957,-27.5 957,-63.5 1149,-63.5 1149,-27.5 957,-27.5"/>
<text text-anchor="middle" x="969.5" y="-41.8" font-family="Times New Roman,serif" font-size="14.00">L</text>
<polyline fill="none" stroke="black" points="982,-27.5 982,-63.5 "/>
<text text-anchor="middle" x="1024.5" y="-41.8" font-family="Times New Roman,serif" font-size="14.00">data &#45;8.0000</text>
<polyline fill="none" stroke="black" points="1067,-27.5 1067,-63.5 "/>
<text text-anchor="middle" x="1108" y="-41.8" font-family="Times New Roman,serif" font-size="14.00">grad 1.0000</text>
</g>
<!-- 2723651077168* -->
<g id="node2" class="node">
<title>2723651077168*</title>
<ellipse fill="none" stroke="black" cx="894" cy="-45.5" rx="27" ry="18"/>
<text text-anchor="middle" x="894" y="-41.8" font-family="Times New Roman,serif" font-size="14.00">*</text>
</g>
<!-- 2723651077168*&#45;&gt;2723651077168 -->
<g id="edge1" class="edge">
<title>2723651077168*&#45;&gt;2723651077168</title>
<path fill="none" stroke="black" d="M921.28,-45.5C928.78,-45.5 937.44,-45.5 946.67,-45.5"/>
<polygon fill="black" stroke="black" points="946.87,-49 956.87,-45.5 946.87,-42 946.87,-49"/>
</g>
<!-- 2723651078560 -->
<g id="node3" class="node">
<title>2723651078560</title>
<polygon fill="none" stroke="black" points="642,-55.5 642,-91.5 831,-91.5 831,-55.5 642,-55.5"/>
<text text-anchor="middle" x="653.5" y="-69.8" font-family="Times New Roman,serif" font-size="14.00">d</text>
<polyline fill="none" stroke="black" points="665,-55.5 665,-91.5 "/>
<text text-anchor="middle" x="705" y="-69.8" font-family="Times New Roman,serif" font-size="14.00">data 4.0000</text>
<polyline fill="none" stroke="black" points="745,-55.5 745,-91.5 "/>
<text text-anchor="middle" x="788" y="-69.8" font-family="Times New Roman,serif" font-size="14.00">grad &#45;2.0000</text>
</g>
<!-- 2723651078560&#45;&gt;2723651077168* -->
<g id="edge7" class="edge">
<title>2723651078560&#45;&gt;2723651077168*</title>
<path fill="none" stroke="black" d="M831.1,-56.65C840.4,-54.97 849.38,-53.35 857.49,-51.89"/>
<polygon fill="black" stroke="black" points="858.37,-55.29 867.59,-50.07 857.13,-48.4 858.37,-55.29"/>
</g>
<!-- 2723651078560+ -->
<g id="node4" class="node">
<title>2723651078560+</title>
<ellipse fill="none" stroke="black" cx="579" cy="-73.5" rx="27" ry="18"/>
<text text-anchor="middle" x="579" y="-69.8" font-family="Times New Roman,serif" font-size="14.00">+</text>
</g>
<!-- 2723651078560+&#45;&gt;2723651078560 -->
<g id="edge2" class="edge">
<title>2723651078560+&#45;&gt;2723651078560</title>
<path fill="none" stroke="black" d="M606.03,-73.5C613.66,-73.5 622.52,-73.5 631.94,-73.5"/>
<polygon fill="black" stroke="black" points="631.94,-77 641.94,-73.5 631.94,-70 631.94,-77"/>
</g>
<!-- 2723651077840 -->
<g id="node5" class="node">
<title>2723651077840</title>
<polygon fill="none" stroke="black" points="642.5,-0.5 642.5,-36.5 830.5,-36.5 830.5,-0.5 642.5,-0.5"/>
<text text-anchor="middle" x="653" y="-14.8" font-family="Times New Roman,serif" font-size="14.00">f</text>
<polyline fill="none" stroke="black" points="663.5,-0.5 663.5,-36.5 "/>
<text text-anchor="middle" x="706" y="-14.8" font-family="Times New Roman,serif" font-size="14.00">data &#45;2.0000</text>
<polyline fill="none" stroke="black" points="748.5,-0.5 748.5,-36.5 "/>
<text text-anchor="middle" x="789.5" y="-14.8" font-family="Times New Roman,serif" font-size="14.00">grad 4.0000</text>
</g>
<!-- 2723651077840&#45;&gt;2723651077168* -->
<g id="edge9" class="edge">
<title>2723651077840&#45;&gt;2723651077168*</title>
<path fill="none" stroke="black" d="M830.65,-34.67C840.2,-36.33 849.43,-37.93 857.72,-39.37"/>
<polygon fill="black" stroke="black" points="857.24,-42.84 867.69,-41.11 858.44,-35.95 857.24,-42.84"/>
</g>
<!-- 2723651078944 -->
<g id="node6" class="node">
<title>2723651078944</title>
<polygon fill="none" stroke="black" points="0,-111.5 0,-147.5 194,-147.5 194,-111.5 0,-111.5"/>
<text text-anchor="middle" x="11.5" y="-125.8" font-family="Times New Roman,serif" font-size="14.00">b</text>
<polyline fill="none" stroke="black" points="23,-111.5 23,-147.5 "/>
<text text-anchor="middle" x="65.5" y="-125.8" font-family="Times New Roman,serif" font-size="14.00">data &#45;3.0000</text>
<polyline fill="none" stroke="black" points="108,-111.5 108,-147.5 "/>
<text text-anchor="middle" x="151" y="-125.8" font-family="Times New Roman,serif" font-size="14.00">grad &#45;4.0000</text>
</g>
<!-- 2723651079520* -->
<g id="node8" class="node">
<title>2723651079520*</title>
<ellipse fill="none" stroke="black" cx="257" cy="-101.5" rx="27" ry="18"/>
<text text-anchor="middle" x="257" y="-97.8" font-family="Times New Roman,serif" font-size="14.00">*</text>
</g>
<!-- 2723651078944&#45;&gt;2723651079520* -->
<g id="edge8" class="edge">
<title>2723651078944&#45;&gt;2723651079520*</title>
<path fill="none" stroke="black" d="M194.01,-112.49C203.35,-110.83 212.37,-109.23 220.49,-107.79"/>
<polygon fill="black" stroke="black" points="221.37,-111.19 230.6,-106 220.15,-104.3 221.37,-111.19"/>
</g>
<!-- 2723651079520 -->
<g id="node7" class="node">
<title>2723651079520</title>
<polygon fill="none" stroke="black" points="321,-83.5 321,-119.5 515,-119.5 515,-83.5 321,-83.5"/>
<text text-anchor="middle" x="332.5" y="-97.8" font-family="Times New Roman,serif" font-size="14.00">e</text>
<polyline fill="none" stroke="black" points="344,-83.5 344,-119.5 "/>
<text text-anchor="middle" x="386.5" y="-97.8" font-family="Times New Roman,serif" font-size="14.00">data &#45;6.0000</text>
<polyline fill="none" stroke="black" points="429,-83.5 429,-119.5 "/>
<text text-anchor="middle" x="472" y="-97.8" font-family="Times New Roman,serif" font-size="14.00">grad &#45;2.0000</text>
</g>
<!-- 2723651079520&#45;&gt;2723651078560+ -->
<g id="edge6" class="edge">
<title>2723651079520&#45;&gt;2723651078560+</title>
<path fill="none" stroke="black" d="M515.16,-84.57C524.82,-82.87 534.13,-81.23 542.49,-79.75"/>
<polygon fill="black" stroke="black" points="543.3,-83.17 552.54,-77.98 542.08,-76.27 543.3,-83.17"/>
</g>
<!-- 2723651079520*&#45;&gt;2723651079520 -->
<g id="edge3" class="edge">
<title>2723651079520*&#45;&gt;2723651079520</title>
<path fill="none" stroke="black" d="M284.26,-101.5C292.05,-101.5 301.1,-101.5 310.75,-101.5"/>
<polygon fill="black" stroke="black" points="310.99,-105 320.99,-101.5 310.99,-98 310.99,-105"/>
</g>
<!-- 2723651080048 -->
<g id="node9" class="node">
<title>2723651080048</title>
<polygon fill="none" stroke="black" points="4.5,-56.5 4.5,-92.5 189.5,-92.5 189.5,-56.5 4.5,-56.5"/>
<text text-anchor="middle" x="16" y="-70.8" font-family="Times New Roman,serif" font-size="14.00">a</text>
<polyline fill="none" stroke="black" points="27.5,-56.5 27.5,-92.5 "/>
<text text-anchor="middle" x="67.5" y="-70.8" font-family="Times New Roman,serif" font-size="14.00">data 2.0000</text>
<polyline fill="none" stroke="black" points="107.5,-56.5 107.5,-92.5 "/>
<text text-anchor="middle" x="148.5" y="-70.8" font-family="Times New Roman,serif" font-size="14.00">grad 6.0000</text>
</g>
<!-- 2723651080048&#45;&gt;2723651079520* -->
<g id="edge4" class="edge">
<title>2723651080048&#45;&gt;2723651079520*</title>
<path fill="none" stroke="black" d="M189.91,-90.21C200.76,-92.06 211.28,-93.86 220.61,-95.45"/>
<polygon fill="black" stroke="black" points="220.16,-98.93 230.6,-97.16 221.34,-92.03 220.16,-98.93"/>
</g>
<!-- 2723651080096 -->
<g id="node10" class="node">
<title>2723651080096</title>
<polygon fill="none" stroke="black" points="320,-28.5 320,-64.5 516,-64.5 516,-28.5 320,-28.5"/>
<text text-anchor="middle" x="331.5" y="-42.8" font-family="Times New Roman,serif" font-size="14.00">c</text>
<polyline fill="none" stroke="black" points="343,-28.5 343,-64.5 "/>
<text text-anchor="middle" x="386.5" y="-42.8" font-family="Times New Roman,serif" font-size="14.00">data 10.0000</text>
<polyline fill="none" stroke="black" points="430,-28.5 430,-64.5 "/>
<text text-anchor="middle" x="473" y="-42.8" font-family="Times New Roman,serif" font-size="14.00">grad &#45;2.0000</text>
</g>
<!-- 2723651080096&#45;&gt;2723651078560+ -->
<g id="edge5" class="edge">
<title>2723651080096&#45;&gt;2723651078560+</title>
<path fill="none" stroke="black" d="M516.07,-62.98C525.42,-64.57 534.43,-66.1 542.55,-67.48"/>
<polygon fill="black" stroke="black" points="542.21,-70.97 552.65,-69.2 543.38,-64.07 542.21,-70.97"/>
</g>
</g>
</svg>
